<svg width="1240" height="111" viewBox="0 0 1240 111" fill="none" xmlns="http://www.w3.org/2000/svg">
<path d="M90.1142 87.2143H37.1538L27.0506 111H0L50.842 0H76.9149L127.92 111H100.217L90.1142 87.2143ZM81.8035 67.71L63.7155 25.2129L45.6275 67.71H81.8035Z" fill="white"/>
<path d="M313.318 111L291.319 80.0786H267.039V111H240.64V0H290.016C300.119 0 308.864 1.63857 316.251 4.91572C323.747 8.19286 329.505 12.8443 333.525 18.87C337.544 24.8957 339.554 32.0314 339.554 40.2771C339.554 48.5229 337.49 55.6586 333.362 61.6843C329.342 67.6043 323.585 72.15 316.089 75.3214L341.672 111H313.318ZM312.829 40.2771C312.829 34.04 310.765 29.2829 306.637 26.0057C302.509 22.6229 296.48 20.9314 288.549 20.9314H267.039V59.6229H288.549C296.48 59.6229 302.509 57.9314 306.637 54.5486C310.765 51.1657 312.829 46.4086 312.829 40.2771Z" fill="white"/>
<path d="M483.393 20.9314H446.891V0H546.293V20.9314H509.791V111H483.393V20.9314Z" fill="white"/>
<path d="M765.185 111L765.022 44.4L731.454 99.2657H719.558L686.152 45.8271V111H661.383V0H683.219L725.913 68.9786L767.956 0H789.629L789.955 111H765.185Z" fill="white"/>
<path d="M993.026 87.2143H940.066L929.963 111H902.912L953.754 0H979.827L1030.83 111H1003.13L993.026 87.2143ZM984.715 67.71L966.627 25.2129L948.539 67.71H984.715Z" fill="white"/>
<path d="M1209.53 111L1181.99 72.4671L1154.94 111H1124.63L1166.83 54.5486L1126.75 0H1156.73L1182.97 35.9957L1208.71 0H1237.23L1197.47 53.5971L1240 111H1209.53Z" fill="white"/>
</svg>
