<svg width="686" height="42" viewBox="0 0 686 42" fill="none" xmlns="http://www.w3.org/2000/svg">
<path d="M0 0.696131H9.4506V41.3039H0V0.696131Z" fill="white"/>
<path d="M60.6778 0.696131V41.3039H52.919L32.5594 16.6492V41.3039H23.2254V0.696131H31.0426L51.3439 25.3508V0.696131H60.6778Z" fill="white"/>
<path d="M82.8819 8.35359H69.8144V0.696131H105.4V8.35359H92.3325V41.3039H82.8819V8.35359Z" fill="white"/>
<path d="M146.187 33.7624V41.3039H114.569V0.696131H145.429V8.23757H123.961V17.0552H142.92V24.3646H123.961V33.7624H146.187Z" fill="white"/>
<path d="M183.809 41.3039L175.933 29.9917H167.241V41.3039H157.79V0.696131H175.466C179.083 0.696131 182.214 1.29558 184.859 2.49447C187.542 3.69337 189.603 5.39503 191.042 7.59945C192.481 9.80387 193.201 12.4144 193.201 15.4309C193.201 18.4475 192.462 21.058 190.984 23.2624C189.545 25.4282 187.484 27.0912 184.8 28.2514L193.959 41.3039H183.809ZM183.634 15.4309C183.634 13.1492 182.895 11.4088 181.417 10.2099C179.939 8.97238 177.781 8.35359 174.941 8.35359H167.241V22.5083H174.941C177.781 22.5083 179.939 21.8895 181.417 20.6519C182.895 19.4144 183.634 17.674 183.634 15.4309Z" fill="white"/>
<path d="M242.225 0.696131V41.3039H234.466L214.106 16.6492V41.3039H204.772V0.696131H212.589L232.891 25.3508V0.696131H242.225Z" fill="white"/>
<path d="M287.588 33.7624V41.3039H255.97V0.696131H286.83V8.23757H265.362V17.0552H284.322V24.3646H265.362V33.7624H287.588Z" fill="white"/>
<path d="M307.65 8.35359H294.583V0.696131H330.169V8.35359H317.101V41.3039H307.65V8.35359Z" fill="white"/>
<path d="M373.359 42C370.131 42 367.001 41.5746 363.967 40.7238C360.973 39.8343 358.561 38.6934 356.733 37.3011L359.942 30.2238C361.692 31.5 363.773 32.5249 366.184 33.2983C368.595 34.0718 371.007 34.4586 373.418 34.4586C376.101 34.4586 378.085 34.0718 379.368 33.2983C380.652 32.4862 381.293 31.4227 381.293 30.1077C381.293 29.1409 380.904 28.3481 380.126 27.7293C379.388 27.0718 378.415 26.5497 377.21 26.163C376.043 25.7762 374.448 25.3508 372.426 24.8867C369.315 24.1519 366.767 23.4171 364.784 22.6823C362.8 21.9475 361.089 20.768 359.65 19.1436C358.25 17.5193 357.55 15.3536 357.55 12.6464C357.55 10.2873 358.192 8.16022 359.475 6.26519C360.759 4.33149 362.684 2.80387 365.251 1.68232C367.856 0.560773 371.026 0 374.759 0C377.365 0 379.913 0.309392 382.402 0.928175C384.891 1.54696 387.069 2.43646 388.935 3.59668L386.019 10.732C382.246 8.60497 378.474 7.54144 374.701 7.54144C372.057 7.54144 370.093 7.96685 368.809 8.81768C367.565 9.66851 366.942 10.7901 366.942 12.1823C366.942 13.5746 367.662 14.6188 369.101 15.3149C370.579 15.9724 372.815 16.6298 375.81 17.2873C378.921 18.0221 381.468 18.7569 383.452 19.4917C385.435 20.2265 387.127 21.3867 388.527 22.9724C389.966 24.558 390.685 26.7044 390.685 29.4116C390.685 31.732 390.024 33.8591 388.702 35.7928C387.419 37.6878 385.474 39.1961 382.868 40.3177C380.263 41.4392 377.093 42 373.359 42Z" fill="white"/>
<path d="M432.845 33.7624V41.3039H401.227V0.696131H432.087V8.23757H410.619V17.0552H429.579V24.3646H410.619V33.7624H432.845Z" fill="white"/>
<path d="M463.878 42C459.716 42 455.944 41.1105 452.56 39.3315C449.216 37.5138 446.571 35.0193 444.626 31.8481C442.721 28.6381 441.768 25.0221 441.768 21C441.768 16.9779 442.721 13.3812 444.626 10.2099C446.571 7 449.216 4.50552 452.56 2.72652C455.944 0.90884 459.736 0 463.936 0C467.475 0 470.664 0.618785 473.503 1.85635C476.381 3.09392 478.792 4.87293 480.737 7.19337L474.67 12.7624C471.909 9.59116 468.486 8.00553 464.403 8.00553C461.875 8.00553 459.619 8.5663 457.635 9.68785C455.652 10.7707 454.096 12.2983 452.969 14.2707C451.88 16.2431 451.335 18.4862 451.335 21C451.335 23.5138 451.88 25.7569 452.969 27.7293C454.096 29.7017 455.652 31.2486 457.635 32.3702C459.619 33.453 461.875 33.9945 464.403 33.9945C468.486 33.9945 471.909 32.3895 474.67 29.1796L480.737 34.7486C478.792 37.1077 476.381 38.9061 473.503 40.1436C470.625 41.3812 467.417 42 463.878 42Z" fill="white"/>
<path d="M509.004 42C503.17 42 498.62 40.395 495.353 37.1851C492.125 33.9751 490.511 29.3923 490.511 23.4365V0.696131H499.961V23.0884C499.961 30.3591 502.995 33.9945 509.062 33.9945C512.018 33.9945 514.273 33.1243 515.829 31.384C517.385 29.605 518.162 26.8398 518.162 23.0884V0.696131H527.496V23.4365C527.496 29.3923 525.863 33.9751 522.596 37.1851C519.368 40.395 514.837 42 509.004 42Z" fill="white"/>
<path d="M566.937 41.3039L559.062 29.9917H550.37V41.3039H540.919V0.696131H558.595C562.212 0.696131 565.343 1.29558 567.987 2.49447C570.671 3.69337 572.732 5.39503 574.171 7.59945C575.61 9.80387 576.33 12.4144 576.33 15.4309C576.33 18.4475 575.591 21.058 574.113 23.2624C572.674 25.4282 570.612 27.0912 567.929 28.2514L577.088 41.3039H566.937ZM566.762 15.4309C566.762 13.1492 566.023 11.4088 564.545 10.2099C563.068 8.97238 560.909 8.35359 558.07 8.35359H550.37V22.5083H558.07C560.909 22.5083 563.068 21.8895 564.545 20.6519C566.023 19.4144 566.762 17.674 566.762 15.4309Z" fill="white"/>
<path d="M587.901 0.696131H597.351V41.3039H587.901V0.696131Z" fill="white"/>
<path d="M619.585 8.35359H606.518V0.696131H642.103V8.35359H629.036V41.3039H619.585V8.35359Z" fill="white"/>
<path d="M670.132 26.9171V41.3039H660.682V26.8011L644.872 0.696131H654.906L665.815 18.7376L676.724 0.696131H686L670.132 26.9171Z" fill="white"/>
</svg>
