<svg width="53" height="53" viewBox="0 0 53 53" fill="none" xmlns="http://www.w3.org/2000/svg">
<g clip-path="url(#clip0_505_2851)">
<path d="M26.5 0.397499C12.1237 0.397499 0.331238 12.1237 0.331238 26.5662C0.331238 35.5763 4.90249 43.5263 11.8587 48.23V45.5137C10.6662 44.5863 9.60624 43.5925 8.61249 42.5325L10.4675 40.8763C9.73874 40.6113 9.07624 40.28 8.54624 39.75L7.22124 40.9425C4.23999 36.9675 2.45124 31.9988 2.45124 26.6325C2.51749 13.3163 13.25 2.58375 26.5 2.58375C32.86 2.58375 38.6237 5.10125 42.93 9.07625L41.6712 10.2025C42.4662 10.335 43.2612 10.6 43.8575 11.13L44.4537 10.6C48.23 14.84 50.5487 20.405 50.5487 26.5662C50.5487 39.8162 39.75 50.615 26.5 50.615C22.4587 50.615 18.6162 49.6213 15.3037 47.8325C14.9062 48.6275 14.575 49.1575 14.2437 49.6875C17.8875 51.675 22.1275 52.735 26.5662 52.735C41.0087 52.735 52.735 41.0088 52.735 26.5662C52.735 12.1237 40.9425 0.397499 26.5 0.397499Z" fill="#808080"/>
<path d="M10.9312 37.5638C11.1962 37.7625 11.5275 37.895 11.925 37.895H13.78L16.0325 35.9075H12.7862L10.9312 37.5638Z" fill="#808080"/>
<path d="M41.0088 40.4787C43.2613 40.4787 45.1825 38.6237 45.1825 36.305V14.9725C45.1825 12.72 43.3275 10.7987 41.0088 10.7987H38.425V8.215H32.3963V10.7987H20.7363V8.215H14.7738V10.7987H11.925C9.6725 10.7987 7.75125 12.6537 7.75125 14.9725V36.3712C7.75125 38.6237 9.60625 40.545 11.925 40.545H12.5875L12.6538 50.4825L19.0138 40.545H41.0088V40.4787ZM14.5088 43.99V38.5575H11.925C10.6663 38.5575 9.6725 37.5637 9.6725 36.305V14.9725C9.6725 13.7137 10.6663 12.72 11.925 12.72H16.695V10.1362H18.815V12.72H34.2513V10.1362H36.5037V12.72H40.9425C42.2013 12.72 43.195 13.7137 43.195 14.9725V36.3712C43.195 37.63 42.2013 38.6237 40.9425 38.6237H17.9538L14.5088 43.99Z" fill="#808080"/>
<path d="M36.1063 18.285C35.9738 18.285 35.9075 18.285 35.775 18.285L41.2738 13.3825C41.1413 13.3825 41.075 13.3162 40.9425 13.3162H38.0938L21.0013 28.62H24.2475L31.9988 21.73C31.9325 21.995 31.9325 22.26 31.9325 22.525C31.9325 24.8437 33.7875 26.765 36.1725 26.765C38.5575 26.765 40.4125 24.8437 40.4125 22.525C40.4125 20.2062 38.425 18.285 36.1063 18.285ZM36.1063 24.7775C34.8475 24.7775 33.7875 23.7175 33.7875 22.4587C33.7875 21.2 34.8475 20.14 36.1063 20.14C37.365 20.14 38.425 21.2 38.425 22.4587C38.425 23.7837 37.365 24.7775 36.1063 24.7775Z" fill="#808080"/>
<path d="M17.2912 26.6987C19.61 26.6987 21.5312 24.7775 21.5312 22.4588C21.5312 20.14 19.61 18.2188 17.2912 18.2188C14.9725 18.2188 13.0512 20.0738 13.0512 22.4588C13.0512 24.8438 14.9725 26.6987 17.2912 26.6987ZM17.2912 20.14C18.55 20.14 19.61 21.2 19.61 22.4588C19.61 23.7175 18.55 24.7775 17.2912 24.7775C16.0325 24.7775 14.9725 23.7175 14.9725 22.4588C14.9725 21.2 16.0325 20.14 17.2912 20.14Z" fill="#808080"/>
<path d="M13.0512 35.4438H39.5512V29.15H13.0512V35.4438ZM14.9725 31.0713H37.6962V33.5225H14.9725V31.0713Z" fill="#808080"/>
<path d="M16.0325 33.0588H19.2788L21.0675 31.4688H17.8213L16.0325 33.0588Z" fill="#808080"/>
</g>
<defs>
<clipPath id="clip0_505_2851">
<rect width="53" height="53" fill="white"/>
</clipPath>
</defs>
</svg>
