<svg width="53" height="53" viewBox="0 0 53 53" fill="none" xmlns="http://www.w3.org/2000/svg">
<g clip-path="url(#clip0_505_2849)">
<path d="M39.75 9.30445C38.8667 9.30445 38.1011 9.54 37.3944 10.0111V6.94889C37.3944 4.59334 35.4511 2.65 33.0955 2.65C32.1533 2.65 31.2111 2.94445 30.5044 3.53333C29.9744 1.70778 28.3255 0.412224 26.3233 0.412224C23.9089 0.412224 21.9655 2.35556 21.9655 4.77V5.06445C21.3767 4.71111 20.6111 4.47556 19.8455 4.47556C17.6078 4.47556 15.8411 6.30111 15.8411 8.48V21.0822C14.5455 19.6689 12.6611 18.7856 10.5411 18.7856C10.0111 18.7856 9.59888 19.1978 9.59888 19.7278V35.6278C9.65777 45.2267 17.3722 53 26.8533 53C36.1578 53 43.7544 45.4033 43.7544 36.0989L43.8722 13.5444C43.8722 11.1889 42.0467 9.30445 39.75 9.30445ZM41.87 36.0989C41.87 44.3433 35.1567 51.1156 26.8533 51.1156C18.4322 51.1156 11.5422 44.1667 11.5422 35.6278V20.7878C13.9567 21.2 15.7822 23.2022 15.8411 25.6756V33.2133C15.8411 33.5078 15.9589 33.7433 16.1355 33.92C16.3122 34.0967 16.6067 34.2144 16.9011 34.1556C16.96 34.1556 22.26 33.6256 24.7333 36.57C24.91 36.8056 25.2044 36.9233 25.4989 36.9233C25.7344 36.9233 25.9111 36.8644 26.1467 36.6878C26.5589 36.3344 26.6178 35.7456 26.2644 35.3333C23.85 32.4478 19.7278 32.1533 17.7844 32.1533V25.9111V25.8522C17.7844 25.7933 17.7844 25.7344 17.7844 25.6756V8.42111C17.7844 7.24334 18.7267 6.30111 19.9044 6.30111C21.0233 6.30111 21.9655 7.18445 22.0244 8.30334V9.65778C22.0244 9.71667 22.0244 9.71667 22.0244 9.77556V27.56C22.0244 28.09 22.4367 28.5022 22.9667 28.5022C23.4967 28.5022 23.9089 28.09 23.9089 27.56V8.42111C23.9089 8.36222 23.9089 8.30334 23.9089 8.24445V4.71111C23.9089 3.35667 24.9689 2.29667 26.3233 2.29667C27.6778 2.29667 28.7378 3.35667 28.7378 4.71111V27.56C28.7378 28.09 29.15 28.5022 29.68 28.5022C30.21 28.5022 30.6222 28.09 30.6222 27.56V7.18445C30.6222 7.12556 30.6811 7.00778 30.6811 6.94889C30.6811 5.65334 31.7411 4.59334 33.0367 4.59334C34.3322 4.59334 35.3922 5.65334 35.3922 6.94889V13.0144C35.3922 13.1911 35.3333 13.3678 35.3333 13.5444C35.3333 13.6622 35.3333 13.7211 35.3922 13.78V27.5011C35.3922 28.0311 35.8044 28.4433 36.3344 28.4433C36.8644 28.4433 37.2767 28.0311 37.2767 27.5011V13.1911C37.4533 12.1311 38.4544 11.3067 39.6322 11.3067C40.8689 11.3067 41.8111 12.3078 41.8111 13.6033L41.87 36.0989Z" fill="#808080"/>
</g>
<defs>
<clipPath id="clip0_505_2849">
<rect width="53" height="53" fill="white"/>
</clipPath>
</defs>
</svg>
