<svg width="53" height="53" viewBox="0 0 53 53" fill="none" xmlns="http://www.w3.org/2000/svg">
<g clip-path="url(#clip0_505_2860)">
<path d="M53.1225 19.368C53.1225 18.644 52.8162 17.9804 52.3873 17.4977C52.8162 17.0151 53.0613 16.3514 53.0613 15.6275V9.89593C53.0613 8.26697 51.7133 7 50.1202 7H36.9468C36.2116 7 35.5988 7.24133 35.0474 7.66365C34.5572 7.24133 33.8832 7 33.148 7H19.9746C19.2393 7 18.6266 7.24133 18.0751 7.66365C17.585 7.24133 16.911 7 16.237 7H3.00231C1.40925 7 0.0612717 8.26697 0.0612717 9.89593V15.6275C0.0612717 16.3514 0.36763 17.0151 0.796532 17.5581C0.36763 18.0407 0.122543 18.7044 0.122543 19.368V25.0995C0.122543 25.7632 0.36763 26.4268 0.796532 26.9095C0.306358 27.4525 0.0612717 28.1161 0.0612717 28.8401V34.5716C0.0612717 35.2956 0.306358 35.8989 0.73526 36.4419C0.36763 36.9246 0.122543 37.5279 0.122543 38.1916V43.9231C0.122543 45.552 1.47052 46.819 3.06358 46.819H8.33295C9.00694 46.819 9.68092 46.5777 10.1711 46.1554C10.6613 46.5777 11.3353 46.8793 12.0705 46.8793H24.6925C25.4277 46.8793 26.0405 46.638 26.5919 46.2157C27.0821 46.638 27.7561 46.8793 28.4913 46.8793H41.052C41.7873 46.8793 42.4 46.638 42.9514 46.2157C43.4416 46.5777 44.0543 46.819 44.7283 46.819H50.1202C51.7746 46.819 53.0613 45.4917 53.0613 43.9231V38.1916C53.0613 37.4676 52.8162 36.8643 52.3873 36.3213C52.9387 35.6576 53.0613 34.9336 53.0613 34.5716V28.8401C53.0613 28.1161 52.8162 27.5128 52.3873 26.9698C52.8162 26.4872 53.1225 25.8235 53.1225 25.0995V19.368ZM50.8555 34.632C50.8555 35.1146 50.1202 35.2353 49.5688 35.2956H44.7283C44.6058 35.2956 44.4832 35.2956 44.422 35.356H37.0694C36.2728 35.356 36.2116 34.994 36.2116 34.632V28.9005C36.2116 28.4781 36.5179 28.1765 36.9468 28.1765H50.1202C50.5491 28.1765 50.8555 28.4781 50.8555 28.9005V34.632ZM8.39422 35.2956H3.12486C3.06358 35.2956 3.00231 35.2956 2.94104 35.2956C2.57341 35.2353 2.26705 34.9336 2.26705 34.5716V28.8401C2.26705 28.4178 2.57341 28.1161 3.00231 28.1161H16.1757C16.6046 28.1161 16.911 28.4178 16.911 28.8401V34.5716C16.911 34.994 16.6046 35.2956 16.1757 35.2956H8.70058C8.57803 35.356 8.51676 35.2956 8.39422 35.2956ZM25.5503 25.1599C25.5503 25.5822 25.2439 25.8839 24.815 25.8839H12.0705C11.6416 25.8839 11.3353 25.5822 11.3353 25.1599V19.4284C11.3353 19.006 11.6416 18.7044 12.0705 18.7044H24.8763C25.3052 18.7044 25.6116 19.006 25.6116 19.4284V25.1599H25.5503ZM19.2393 28.9005C19.2393 28.5385 19.4844 28.2971 19.6069 28.1765H32.6578C32.9642 28.1765 33.8832 28.2368 33.8832 28.9005V34.632C33.8832 35.2956 32.9029 35.356 32.5965 35.356H19.6069C19.4844 35.2353 19.2393 34.994 19.2393 34.632V28.9005ZM41.6035 25.1599C41.6035 25.5219 41.2971 25.8235 40.8682 25.8235H28.6139C28.185 25.8235 27.8786 25.5219 27.8786 25.0995V19.368C27.8786 18.9457 28.185 18.644 28.6139 18.644H40.8682C41.2358 18.644 41.6035 18.9457 41.6035 19.3077V25.1599ZM2.3896 19.368C2.3896 18.9457 2.69595 18.644 3.12486 18.644H8.33295C8.76185 18.644 9.06821 18.9457 9.06821 19.368V25.0995C9.06821 25.5219 8.76185 25.8235 8.33295 25.8235H3.12486C2.69595 25.8235 2.3896 25.5219 2.3896 25.0995V19.368ZM50.9168 25.1599C50.9168 25.5822 50.6104 25.8839 50.1815 25.8839H44.6058C44.2382 25.8839 43.8705 25.5822 43.8705 25.2202V19.4887C43.8705 19.1267 44.1769 18.825 44.6058 18.825H50.1815C50.6104 18.825 50.9168 19.1267 50.9168 19.549V25.1599ZM36.2116 9.89593C36.2116 9.4736 36.5179 9.17195 36.9468 9.17195H50.1202C50.5491 9.17195 50.8555 9.4736 50.8555 9.89593V15.6275C50.8555 16.0498 50.5491 16.3514 50.1202 16.3514H36.9468C36.5179 16.3514 36.2116 16.0498 36.2116 15.6275V9.89593ZM19.2393 9.89593C19.2393 9.4736 19.5457 9.17195 19.9746 9.17195H33.148C33.5769 9.17195 33.8832 9.4736 33.8832 9.89593V15.6275C33.8832 16.2911 32.9642 16.3514 32.6578 16.3514H19.6069C19.4844 16.2308 19.2393 15.9894 19.2393 15.6275V9.89593ZM2.32832 9.89593C2.32832 9.4736 2.63468 9.17195 3.06358 9.17195H16.237C16.6659 9.17195 16.9723 9.4736 16.9723 9.89593V15.6275C16.9723 16.0498 16.6659 16.3514 16.237 16.3514H3.00231C2.57341 16.3514 2.26705 16.0498 2.26705 15.6275V9.89593H2.32832ZM9.12948 43.9834C9.12948 44.4057 8.82312 44.7074 8.39422 44.7074H3.12486C2.69595 44.7074 2.3896 44.4057 2.3896 43.9834V38.2519C2.3896 37.8899 2.63468 37.6486 3.00231 37.5882H3.06358H8.57803C8.88439 37.6486 9.12948 37.9502 9.12948 38.2519V43.9834ZM25.489 44.0437C25.489 44.4661 25.1827 44.7677 24.7538 44.7677H12.1318C11.7029 44.7677 11.3965 44.4661 11.3965 44.0437V38.3122C11.3965 37.8899 11.7029 37.5882 12.1318 37.5882H24.7538C25.1827 37.5882 25.489 37.8899 25.489 38.3122V44.0437ZM41.052 44.7677H28.5526C28.1237 44.7677 27.8173 44.4661 27.8173 44.0437V38.3122C27.8173 37.8899 28.1237 37.5882 28.5526 37.5882H41.052C41.4197 37.5882 41.726 37.8899 41.7873 38.2519V43.9834V44.0437C41.7873 44.4661 41.4809 44.7677 41.052 44.7677ZM50.9168 43.9834C50.9168 44.4057 50.6104 44.7074 50.1815 44.7074H44.7283C44.3607 44.7074 44.0543 44.4057 43.9931 44.0437V38.3122V38.2519C43.9931 37.8899 44.2381 37.6486 44.5445 37.5882H48.8948C49.1399 37.5882 49.385 37.5882 49.6301 37.5279H50.1202C50.5491 37.5279 50.8555 37.8296 50.8555 38.2519V43.9834H50.9168Z" fill="#808080"/>
</g>
<defs>
<clipPath id="clip0_505_2860">
<rect width="53" height="40" fill="white" transform="translate(0 7)"/>
</clipPath>
</defs>
</svg>
